<svg width="12" height="22" viewBox="0 0 12 22" fill="none" xmlns="http://www.w3.org/2000/svg">
<path d="M11.7074 11.7074L1.70745 21.7074C1.61454 21.8004 1.50424 21.8741 1.38284 21.9243C1.26145 21.9746 1.13134 22.0005 0.999946 22.0005C0.868551 22.0005 0.738442 21.9746 0.617049 21.9243C0.495656 21.8741 0.385355 21.8004 0.292445 21.7074C0.199535 21.6145 0.125835 21.5042 0.075552 21.3828C0.0252693 21.2614 -0.000610352 21.1313 -0.000610352 20.9999C-0.000610352 20.8686 0.0252693 20.7384 0.075552 20.6171C0.125835 20.4957 0.199535 20.3854 0.292445 20.2924L9.5862 10.9999L0.292445 1.70745C0.104805 1.5198 -0.000610354 1.26531 -0.000610352 0.999946C-0.00061035 0.734582 0.104805 0.480086 0.292445 0.292446C0.480086 0.104805 0.734582 -0.00061035 0.999946 -0.000610352C1.26531 -0.000610354 1.51981 0.104805 1.70745 0.292446L11.7074 10.2924C11.8004 10.3853 11.8742 10.4956 11.9245 10.617C11.9748 10.7384 12.0007 10.8685 12.0007 10.9999C12.0007 11.1314 11.9748 11.2615 11.9245 11.3829C11.8742 11.5043 11.8004 11.6146 11.7074 11.7074Z" fill="#38343D"/>
</svg>
