<svg width="27" height="30" viewBox="0 0 27 30" fill="none" xmlns="http://www.w3.org/2000/svg">
<path d="M17 4C17 3.20888 16.7654 2.43552 16.3258 1.77772C15.8863 1.11992 15.2616 0.607234 14.5307 0.304484C13.7998 0.00173312 12.9955 -0.0774802 12.2196 0.0768607C11.4437 0.231202 10.7309 0.612165 10.1715 1.17157C9.61212 1.73098 9.23115 2.44372 9.07681 3.21964C8.92247 3.99556 9.00169 4.79983 9.30444 5.53074C9.60719 6.26164 10.1199 6.88635 10.7777 7.32588C11.4355 7.76541 12.2088 8 13 8C14.0608 8 15.0782 7.57857 15.8284 6.82843C16.5785 6.07828 17 5.06087 17 4ZM13 6C12.6044 6 12.2177 5.8827 11.8888 5.66294C11.5599 5.44318 11.3036 5.13082 11.1522 4.76537C11.0008 4.39992 10.9612 3.99778 11.0384 3.60982C11.1156 3.22186 11.306 2.86549 11.5857 2.58579C11.8654 2.30608 12.2218 2.1156 12.6098 2.03843C12.9977 1.96126 13.3999 2.00087 13.7653 2.15224C14.1308 2.30362 14.4431 2.55996 14.6629 2.88886C14.8827 3.21776 15 3.60444 15 4C15 4.53044 14.7892 5.03914 14.4142 5.41422C14.0391 5.78929 13.5304 6 13 6ZM25.9375 9.96375C25.8236 9.4037 25.5178 8.90099 25.0727 8.54245C24.6277 8.18391 24.0714 7.99204 23.5 8H2.49996C1.93006 7.99998 1.37726 8.19468 0.933156 8.55183C0.489053 8.90898 0.180303 9.40714 0.0580657 9.96378C-0.0641719 10.5204 0.00744021 11.1021 0.261036 11.6125C0.514632 12.1228 0.934989 12.5312 1.45246 12.77H1.46871L7.81246 15.5638L5.18746 25.5288C4.91279 26.1338 4.88972 26.8231 5.12332 27.4452C5.35692 28.0672 5.82805 28.571 6.43308 28.8456C7.03811 29.1203 7.72746 29.1434 8.34949 28.9098C8.97153 28.6762 9.47529 28.205 9.74996 27.6L13 21.9913L16.25 27.6C16.5388 28.1792 17.041 28.6239 17.6509 28.8404C18.2609 29.0569 18.9311 29.0285 19.5205 28.761C20.1098 28.4935 20.5725 28.0078 20.8111 27.4062C21.0498 26.8045 21.0458 26.1338 20.8 25.535L18.175 15.57L24.5187 12.7763H24.535C25.0607 12.5455 25.489 12.1377 25.7452 11.6238C26.0015 11.11 26.0695 10.5226 25.9375 9.96375ZM23.7125 10.9513L16.5962 14.0838C16.3784 14.1797 16.2019 14.3503 16.0985 14.5648C15.9952 14.7792 15.9718 15.0235 16.0325 15.2538L18.8912 26.125C18.9058 26.1832 18.9263 26.2398 18.9525 26.2938C18.9944 26.3835 19.0088 26.4836 18.9937 26.5815C18.9787 26.6794 18.9349 26.7706 18.868 26.8436C18.801 26.9165 18.7139 26.968 18.6177 26.9914C18.5214 27.0148 18.4204 27.0091 18.3275 26.975C18.2031 26.9294 18.102 26.8363 18.0462 26.7163C18.0335 26.6892 18.0194 26.6629 18.0037 26.6375L13.865 19.5C13.7771 19.3485 13.6509 19.2227 13.4991 19.1352C13.3473 19.0478 13.1751 19.0018 13 19.0018C12.8248 19.0018 12.6526 19.0478 12.5008 19.1352C12.349 19.2227 12.2229 19.3485 12.135 19.5L7.99996 26.6313C7.98431 26.6567 7.97012 26.683 7.95746 26.71C7.90167 26.8301 7.80052 26.9231 7.67621 26.9688C7.58322 27.0028 7.48221 27.0085 7.38599 26.9851C7.28976 26.9617 7.20265 26.9103 7.1357 26.8373C7.06875 26.7643 7.02498 26.6731 7.00994 26.5752C6.99489 26.4774 7.00926 26.3772 7.05121 26.2875C7.07735 26.2335 7.09788 26.177 7.11246 26.1188L9.96745 15.25C10.0281 15.0198 10.0047 14.7755 9.90136 14.561C9.79802 14.3466 9.62156 14.176 9.40371 14.08L2.28746 10.9513C2.18531 10.9025 2.10272 10.8206 2.05319 10.7188C2.00367 10.617 1.99014 10.5014 2.01481 10.391C2.03949 10.2805 2.10091 10.1817 2.18903 10.1107C2.27716 10.0397 2.38678 10.0006 2.49996 10H23.5C23.6135 9.9998 23.7236 10.0382 23.8124 10.1089C23.9012 10.1797 23.9633 10.2785 23.9884 10.3892C24.0136 10.4998 24.0003 10.6158 23.9509 10.7179C23.9014 10.8201 23.8186 10.9024 23.7162 10.9513H23.7125Z" fill="#38343D"/>
</svg>
