<svg width="32" height="27" viewBox="0 0 32 27" fill="none" xmlns="http://www.w3.org/2000/svg">
<path d="M31.7074 14.7075L28.7074 17.7075C28.6146 17.8005 28.5043 17.8743 28.3829 17.9246C28.2615 17.9749 28.1314 18.0008 27.9999 18.0008C27.8685 18.0008 27.7384 17.9749 27.617 17.9246C27.4956 17.8743 27.3853 17.8005 27.2924 17.7075L24.2924 14.7075C24.1048 14.5199 23.9994 14.2654 23.9994 14C23.9994 13.7347 24.1048 13.4802 24.2924 13.2925C24.4801 13.1049 24.7346 12.9995 24.9999 12.9995C25.2653 12.9995 25.5198 13.1049 25.7074 13.2925L26.9999 14.5863V14C27.0011 11.6708 26.2629 9.40138 24.8916 7.5186C23.5203 5.63583 21.5868 4.23694 19.3696 3.52343C17.1523 2.80993 14.7658 2.81866 12.5539 3.54835C10.3419 4.27805 8.41867 5.69104 7.0612 7.58379C6.90638 7.79928 6.67229 7.94444 6.41045 7.98734C6.1486 8.03024 5.88043 7.96736 5.66495 7.81254C5.44946 7.65772 5.3043 7.42364 5.2614 7.16179C5.2185 6.89994 5.28138 6.63178 5.4362 6.41629C7.04056 4.17944 9.31355 2.5096 11.9277 1.64731C14.5419 0.78503 17.3623 0.77482 19.9827 1.61815C22.603 2.46149 24.8881 4.11483 26.5086 6.34001C28.1291 8.56518 29.0014 11.2473 28.9999 14V14.5863L30.2924 13.2925C30.4801 13.1049 30.7346 12.9995 30.9999 12.9995C31.2653 12.9995 31.5198 13.1049 31.7074 13.2925C31.8951 13.4802 32.0005 13.7347 32.0005 14C32.0005 14.2654 31.8951 14.5199 31.7074 14.7075ZM26.5599 21.5825C24.9551 23.8177 22.6825 25.486 20.0691 26.3473C17.4558 27.2086 14.6365 27.2184 12.0172 26.3755C9.39793 25.5325 7.11366 23.8801 5.49324 21.6562C3.87282 19.4323 2.99984 16.7517 2.99995 14V13.4138L1.70745 14.7075C1.51981 14.8952 1.26531 15.0006 0.999946 15.0006C0.734582 15.0006 0.480086 14.8952 0.292446 14.7075C0.104805 14.5199 -0.000610352 14.2654 -0.000610352 14C-0.000610352 13.7347 0.104805 13.4802 0.292446 13.2925L3.29245 10.2925C3.38532 10.1996 3.49561 10.1258 3.61701 10.0755C3.7384 10.0252 3.86853 9.99926 3.99995 9.99926C4.13136 9.99926 4.26149 10.0252 4.38289 10.0755C4.50428 10.1258 4.61457 10.1996 4.70745 10.2925L7.70745 13.2925C7.89509 13.4802 8.0005 13.7347 8.0005 14C8.0005 14.2654 7.89509 14.5199 7.70745 14.7075C7.5198 14.8952 7.26531 15.0006 6.99995 15.0006C6.73458 15.0006 6.48009 14.8952 6.29245 14.7075L4.99995 13.4138V14C4.99758 16.6928 5.98726 19.292 7.77995 21.3013C8.89523 19.6851 10.4635 18.4348 12.2874 17.7075C11.3077 16.9358 10.5927 15.878 10.242 14.6812C9.89134 13.4843 9.92232 12.2079 10.3307 11.0295C10.739 9.85104 11.5045 8.82915 12.5205 8.1059C13.5366 7.38266 14.7528 6.99401 15.9999 6.99401C17.2471 6.99401 18.4633 7.38266 19.4794 8.1059C20.4954 8.82915 21.2609 9.85104 21.6692 11.0295C22.0776 12.2079 22.1086 13.4843 21.7579 14.6812C21.4072 15.878 20.6922 16.9358 19.7124 17.7075C21.5381 18.4349 23.1074 19.6868 24.2224 21.305C24.4753 21.0211 24.7135 20.7245 24.9362 20.4163C25.091 20.2008 25.3251 20.0556 25.5869 20.0127C25.8488 19.9698 26.117 20.0327 26.3324 20.1875C26.5479 20.3424 26.6931 20.5764 26.736 20.8383C26.7789 21.1001 26.716 21.3683 26.5612 21.5838L26.5599 21.5825ZM15.9999 17C16.7911 17 17.5644 16.7654 18.2222 16.3259C18.88 15.8864 19.3927 15.2617 19.6955 14.5308C19.9982 13.7999 20.0774 12.9956 19.9231 12.2197C19.7687 11.4438 19.3878 10.731 18.8284 10.1716C18.269 9.6122 17.5562 9.23124 16.7803 9.0769C16.0044 8.92256 15.2001 9.00177 14.4692 9.30452C13.7383 9.60727 13.1136 10.12 12.6741 10.7778C12.2345 11.4356 11.9999 12.2089 11.9999 13C11.9999 14.0609 12.4214 15.0783 13.1715 15.8285C13.9217 16.5786 14.9391 17 15.9999 17ZM15.9999 25C18.4405 24.9969 20.811 24.184 22.7399 22.6888C22.0165 21.5574 21.0199 20.6263 19.842 19.9814C18.6641 19.3364 17.3429 18.9984 15.9999 18.9984C14.657 18.9984 13.3357 19.3364 12.1578 19.9814C10.98 20.6263 9.98336 21.5574 9.25995 22.6888C11.186 24.1893 13.5584 25.0029 15.9999 25Z" fill="#38343D"/>
</svg>
